<svg xmlns="http://www.w3.org/2000/svg" viewBox="0 0 123.94 106.28"><defs><style>.cls-1{fill:none;}</style></defs><title>Asset 2</title><g id="Layer_2" data-name="Layer 2"><g id="Main"><g id="Logo"><g id="Firkant_transparent"><path class="cls-1" d="M28.26,42.64H70.43a30,30,0,0,1,1-29.16c-1-.08-2.11-.13-3.18-.13A42.05,42.05,0,0,0,28.26,42.64Z"/><path class="cls-1" d="M76.52,50.81V96.47a42,42,0,0,0,33.7-40.25,30.07,30.07,0,0,1-33.7-5.41Z"/><path class="cls-1" d="M103.2,34.17a10.86,10.86,0,0,0,5.57-1.63A10.65,10.65,0,0,0,112,29.23a10.39,10.39,0,0,0-13.4-14.82A10.63,10.63,0,0,0,95,17.34a10.41,10.41,0,0,0-2,4.13,10.18,10.18,0,0,0-.26,2.29A10.42,10.42,0,0,0,103.2,34.17Z"/><path class="cls-1" d="M112.42,40.83a18.92,18.92,0,0,1-4.2,1.65A19.34,19.34,0,0,1,85.08,16.87a19.51,19.51,0,0,1,2.07-4,20,20,0,0,1,3.1-3.52c.17-.15.33-.31.5-.45-.28.09-.55.2-.83.3a21.18,21.18,0,0,0-5,2.72,21.55,21.55,0,0,0-3.74,3.46,21.13,21.13,0,0,0,28.15,31,21.53,21.53,0,0,0,7-8.16.88.88,0,0,1-.05-.15A19.16,19.16,0,0,1,112.42,40.83Z"/><path d="M105.56,0H0V106.27H123.94V0ZM93.05,21.47a10.41,10.41,0,0,1,2-4.13,10.63,10.63,0,0,1,3.62-2.93A10.39,10.39,0,0,1,112,29.23a10.65,10.65,0,0,1-3.27,3.31,10.39,10.39,0,0,1-16-8.78A10.18,10.18,0,0,1,93.05,21.47ZM31.4,95.68H23.83L15,61.44h-.14V95.68H8.29V48.78h9.25L24.7,76.85h.14V48.78H31.4Zm34.31,0H56.53L53.18,64.06H53L49.69,95.68H39.91l-4.76-46.9h7.11l3.28,36.05h.13l3.49-36h8l3.48,36.05h.14l3.28-36h6.36ZM67.14,29a29.86,29.86,0,0,0,3.29,13.65H28.26a42.05,42.05,0,0,1,40-29.29c1.07,0,2.13.05,3.18.13A30,30,0,0,0,67.14,29Zm9.38,67.48V50.81a30.07,30.07,0,0,0,33.7,5.41A42,42,0,0,1,76.52,96.47ZM113.08,43a21.44,21.44,0,0,1-3.8,3.38,21.13,21.13,0,0,1-28.15-31,21.55,21.55,0,0,1,3.74-3.46,21.18,21.18,0,0,1,5-2.72c.28-.1.55-.21.83-.3-.17.14-.33.3-.5.45a20,20,0,0,0-3.1,3.52,19.51,19.51,0,0,0-2.07,4,19.32,19.32,0,0,0,23.14,25.61,18.92,18.92,0,0,0,4.2-1.65,19.16,19.16,0,0,0,3.82-2.74.88.88,0,0,0,.05.15A21.52,21.52,0,0,1,113.08,43Z"/></g></g></g></g></svg>