<svg xmlns="http://www.w3.org/2000/svg" viewBox="0 0 159.12 149.53"><defs><style>.cls-1{font-size:88.28px;fill:#1d1d1b;font-family:BebasNeue-Regular, Bebas Neue;}</style></defs><title>Asset 1</title><g id="Layer_2" data-name="Layer 2"><g id="Main"><g id="Logo"><g id="Svarthvitt"><path d="M159.12,66.79c0-2.19-.11-4.36-.32-6.49a54.28,54.28,0,0,1-70.91,47.18l1.35,5.12-1.3,8.34s1.58,6.72.17,8.73c-.31.43-1.41,2.05-2.43,3.57a66.81,66.81,0,0,0,73.44-66.45Z"/><path d="M29.73,63.05c2.18-1,4.91,1,6.52,1.22s5.36,1,8.17.47l3-.56,3.39.54a3.13,3.13,0,0,0,.62,1.53,54.3,54.3,0,0,1,53.3-64.72c.69,0,1.37,0,2.06.05A66.74,66.74,0,0,0,25.6,64.84a2.19,2.19,0,0,1,.95-.35C27.56,64.49,27.59,64.08,29.73,63.05Z"/><polygon points="80.78 60.2 80.78 57.49 79.42 56.36 78.99 56.4 78.41 57.53 77.39 62.01 77.95 63.59 77.15 64.07 81.27 62.82 81.11 62.34 80.78 60.2"/><path d="M149,55.84a44.08,44.08,0,0,0-.46-6.33,31.83,31.83,0,1,1-32.25-36.43A44.29,44.29,0,0,0,60.38,55.84a43.84,43.84,0,0,0,1.15,10l.46-.16c.41,2.42,4.23-1.23,4.23-1.23l3,2,6.09-1.85,0-1.5.19-2.48L75,55.23l-.22-2.83s-1.7-1.81-2.15-2.48,0-2.26,0-2.26,1.47-2.49.79-2.49,0-2.37,0-2.37l1.78.22a1.56,1.56,0,0,0,0-1.13c-.23-.56,1-1.47,2.15-1.24s.56,2.6.56,2.6l1.36.68v3L80,48v1.36l1.24,1.7v2.48s1.92,2,2.26,2.6a9.47,9.47,0,0,1,.62,2.15l-1.3,2.26.68,1h1.92c.31,0,0,.77,0,.77h-.14l.86,4.16s.61,2.82,0,4.42,6.25,0,6.25,0v4.43l3.21,3.42S94.18,88.41,94,89.41s-.2,6.24.8,7c.31.25-.27,1.15-1.22,2.29A44.35,44.35,0,0,0,149,55.84Z"/><path d="M95.21,44.9a21.83,21.83,0,0,0,41,10.52,20.57,20.57,0,0,1-27.24-30.78A21.86,21.86,0,0,0,95.21,44.9Z"/><path d="M123.22,50a10.6,10.6,0,1,0-10.6-10.6A10.61,10.61,0,0,0,123.22,50Z"/><text class="cls-1" transform="translate(0 131.88) scale(0.97 1)">NW</text></g></g></g></g></svg>